<svg width="1677" height="257" xmlns="http://www.w3.org/2000/svg" xmlns:xlink="http://www.w3.org/1999/xlink" overflow="hidden"><defs><clipPath id="clip0"><rect x="770" y="1397" width="1677" height="257"/></clipPath><linearGradient x1="87.5893" y1="-10.3125" x2="87.5893" y2="159.128" gradientUnits="userSpaceOnUse" spreadMethod="reflect" id="stroke1"><stop offset="0" stop-color="#E22F8A" stop-opacity="1"/><stop offset="0.00884956" stop-color="#E23089" stop-opacity="1"/><stop offset="0.0176991" stop-color="#E23289" stop-opacity="1"/><stop offset="0.0265487" stop-color="#E23489" stop-opacity="1"/><stop offset="0.0353982" stop-color="#E33589" stop-opacity="1"/><stop offset="0.0442478" stop-color="#E33789" stop-opacity="1"/><stop offset="0.0530973" stop-color="#E33989" stop-opacity="1"/><stop offset="0.0619469" stop-color="#E43A89" stop-opacity="1"/><stop offset="0.0707965" stop-color="#E43C89" stop-opacity="1"/><stop offset="0.079646" stop-color="#E43E89" stop-opacity="1"/><stop offset="0.0884956" stop-color="#E43F88" stop-opacity="1"/><stop offset="0.0973451" stop-color="#E54188" stop-opacity="1"/><stop offset="0.106195" stop-color="#E54288" stop-opacity="1"/><stop offset="0.115044" stop-color="#E54488" stop-opacity="1"/><stop offset="0.123894" stop-color="#E54687" stop-opacity="1"/><stop offset="0.132743" stop-color="#E64787" stop-opacity="1"/><stop offset="0.141593" stop-color="#E64987" stop-opacity="1"/><stop offset="0.150442" stop-color="#E64A86" stop-opacity="1"/><stop offset="0.159292" stop-color="#E64C86" stop-opacity="1"/><stop offset="0.168142" stop-color="#E74D85" stop-opacity="1"/><stop offset="0.176991" stop-color="#E74F85" stop-opacity="1"/><stop offset="0.185841" stop-color="#E75085" stop-opacity="1"/><stop offset="0.19469" stop-color="#E85284" stop-opacity="1"/><stop offset="0.20354" stop-color="#E85384" stop-opacity="1"/><stop offset="0.212389" stop-color="#E85483" stop-opacity="1"/><stop offset="0.221239" stop-color="#E85683" stop-opacity="1"/><stop offset="0.230089" stop-color="#E85782" stop-opacity="1"/><stop offset="0.238938" stop-color="#E95982" stop-opacity="1"/><stop offset="0.247788" stop-color="#E95A81" stop-opacity="1"/><stop offset="0.256637" stop-color="#E95B81" stop-opacity="1"/><stop offset="0.265487" stop-color="#E95D80" stop-opacity="1"/><stop offset="0.274336" stop-color="#EA5E7F" stop-opacity="1"/><stop offset="0.283186" stop-color="#EA5F7F" stop-opacity="1"/><stop offset="0.292035" stop-color="#EA617E" stop-opacity="1"/><stop offset="0.300885" stop-color="#EA627E" stop-opacity="1"/><stop offset="0.309735" stop-color="#EB637D" stop-opacity="1"/><stop offset="0.318584" stop-color="#EB647C" stop-opacity="1"/><stop offset="0.327434" stop-color="#EB667B" stop-opacity="1"/><stop offset="0.336283" stop-color="#EB677B" stop-opacity="1"/><stop offset="0.345133" stop-color="#EB687A" stop-opacity="1"/><stop offset="0.353982" stop-color="#EC6979" stop-opacity="1"/><stop offset="0.362832" stop-color="#EC6A78" stop-opacity="1"/><stop offset="0.371681" stop-color="#EC6C78" stop-opacity="1"/><stop offset="0.380531" stop-color="#EC6D77" stop-opacity="1"/><stop offset="0.389381" stop-color="#EC6E76" stop-opacity="1"/><stop offset="0.39823" stop-color="#ED6F75" stop-opacity="1"/><stop offset="0.40708" stop-color="#ED7074" stop-opacity="1"/><stop offset="0.415929" stop-color="#ED7173" stop-opacity="1"/><stop offset="0.424779" stop-color="#ED7273" stop-opacity="1"/><stop offset="0.433628" stop-color="#ED7372" stop-opacity="1"/><stop offset="0.442478" stop-color="#ED7471" stop-opacity="1"/><stop offset="0.451327" stop-color="#EE7570" stop-opacity="1"/><stop offset="0.460177" stop-color="#EE766F" stop-opacity="1"/><stop offset="0.469027" stop-color="#EE776E" stop-opacity="1"/><stop offset="0.477876" stop-color="#EE786D" stop-opacity="1"/><stop offset="0.486726" stop-color="#EE796C" stop-opacity="1"/><stop offset="0.495575" stop-color="#EF7A6B" stop-opacity="1"/><stop offset="0.504425" stop-color="#EF7B6A" stop-opacity="1"/><stop offset="0.513274" stop-color="#EF7C69" stop-opacity="1"/><stop offset="0.522124" stop-color="#EF7D68" stop-opacity="1"/><stop offset="0.530973" stop-color="#EF7E67" stop-opacity="1"/><stop offset="0.539823" stop-color="#EF7F66" stop-opacity="1"/><stop offset="0.548673" stop-color="#EF8065" stop-opacity="1"/><stop offset="0.557522" stop-color="#F08163" stop-opacity="1"/><stop offset="0.566372" stop-color="#F08262" stop-opacity="1"/><stop offset="0.575221" stop-color="#F08261" stop-opacity="1"/><stop offset="0.584071" stop-color="#F08360" stop-opacity="1"/><stop offset="0.59292" stop-color="#F0845F" stop-opacity="1"/><stop offset="0.60177" stop-color="#F0855E" stop-opacity="1"/><stop offset="0.610619" stop-color="#F0865C" stop-opacity="1"/><stop offset="0.619469" stop-color="#F1865B" stop-opacity="1"/><stop offset="0.628319" stop-color="#F1875A" stop-opacity="1"/><stop offset="0.637168" stop-color="#F18859" stop-opacity="1"/><stop offset="0.646018" stop-color="#F18957" stop-opacity="1"/><stop offset="0.654867" stop-color="#F18956" stop-opacity="1"/><stop offset="0.663717" stop-color="#F18A55" stop-opacity="1"/><stop offset="0.672566" stop-color="#F18B53" stop-opacity="1"/><stop offset="0.681416" stop-color="#F18B52" stop-opacity="1"/><stop offset="0.690265" stop-color="#F28C51" stop-opacity="1"/><stop offset="0.699115" stop-color="#F28C4F" stop-opacity="1"/><stop offset="0.707965" stop-color="#F28D4E" stop-opacity="1"/><stop offset="0.716814" stop-color="#F28E4C" stop-opacity="1"/><stop offset="0.725664" stop-color="#F28E4B" stop-opacity="1"/><stop offset="0.734513" stop-color="#F28F4A" stop-opacity="1"/><stop offset="0.743363" stop-color="#F28F48" stop-opacity="1"/><stop offset="0.752212" stop-color="#F29047" stop-opacity="1"/><stop offset="0.761062" stop-color="#F29045" stop-opacity="1"/><stop offset="0.769912" stop-color="#F29144" stop-opacity="1"/><stop offset="0.778761" stop-color="#F29142" stop-opacity="1"/><stop offset="0.787611" stop-color="#F39241" stop-opacity="1"/><stop offset="0.79646" stop-color="#F3923F" stop-opacity="1"/><stop offset="0.80531" stop-color="#F3933E" stop-opacity="1"/><stop offset="0.814159" stop-color="#F3933C" stop-opacity="1"/><stop offset="0.823009" stop-color="#F3933A" stop-opacity="1"/><stop offset="0.831858" stop-color="#F39439" stop-opacity="1"/><stop offset="0.840708" stop-color="#F39437" stop-opacity="1"/><stop offset="0.849558" stop-color="#F39436" stop-opacity="1"/><stop offset="0.858407" stop-color="#F39534" stop-opacity="1"/><stop offset="0.867257" stop-color="#F39532" stop-opacity="1"/><stop offset="0.876106" stop-color="#F39531" stop-opacity="1"/><stop offset="0.884956" stop-color="#F3962F" stop-opacity="1"/><stop offset="0.893805" stop-color="#F3962D" stop-opacity="1"/><stop offset="0.902655" stop-color="#F3962B" stop-opacity="1"/><stop offset="0.911504" stop-color="#F3962A" stop-opacity="1"/><stop offset="0.920354" stop-color="#F39728" stop-opacity="1"/><stop offset="0.929204" stop-color="#F39726" stop-opacity="1"/><stop offset="0.938053" stop-color="#F39724" stop-opacity="1"/><stop offset="0.946903" stop-color="#F39723" stop-opacity="1"/><stop offset="0.955752" stop-color="#F39721" stop-opacity="1"/><stop offset="0.964602" stop-color="#F3971F" stop-opacity="1"/><stop offset="0.973451" stop-color="#F3971D" stop-opacity="1"/><stop offset="0.982301" stop-color="#F3971B" stop-opacity="1"/><stop offset="0.99115" stop-color="#F39719" stop-opacity="1"/><stop offset="1" stop-color="#F49818" stop-opacity="1"/></linearGradient><linearGradient x1="1297.63" y1="1524.09" x2="2402.21" y2="1524.09" gradientUnits="userSpaceOnUse" spreadMethod="reflect" id="fill2"><stop offset="0" stop-color="#E22F8A" stop-opacity="1"/><stop offset="0.37" stop-color="#F49818" stop-opacity="1"/><stop offset="1" stop-color="#F49818" stop-opacity="1"/></linearGradient><linearGradient x1="1297.63" y1="1524.09" x2="2402.21" y2="1524.09" gradientUnits="userSpaceOnUse" spreadMethod="reflect" id="fill3"><stop offset="0" stop-color="#F49818" stop-opacity="1"/><stop offset="0.36" stop-color="#F49818" stop-opacity="1"/><stop offset="0.7" stop-color="#E22F8A" stop-opacity="1"/><stop offset="1" stop-color="#E22F8A" stop-opacity="1"/></linearGradient><linearGradient x1="1002.2" y1="1594.22" x2="1002.2" y2="1424.19" gradientUnits="userSpaceOnUse" spreadMethod="reflect" id="stroke4"><stop offset="0" stop-color="#E22F8A" stop-opacity="1"/><stop offset="0.07" stop-color="#E22F8A" stop-opacity="1"/><stop offset="1" stop-color="#F49818" stop-opacity="1"/></linearGradient><linearGradient x1="87.5893" y1="-10.3125" x2="87.5893" y2="159.128" gradientUnits="userSpaceOnUse" spreadMethod="reflect" id="stroke5"><stop offset="0" stop-color="#F49818" stop-opacity="1"/><stop offset="0.00884956" stop-color="#F39719" stop-opacity="1"/><stop offset="0.0176991" stop-color="#F3971B" stop-opacity="1"/><stop offset="0.0265487" stop-color="#F3971D" stop-opacity="1"/><stop offset="0.0353982" stop-color="#F3971F" stop-opacity="1"/><stop offset="0.0442478" stop-color="#F39721" stop-opacity="1"/><stop offset="0.0530973" stop-color="#F39723" stop-opacity="1"/><stop offset="0.0619469" stop-color="#F39724" stop-opacity="1"/><stop offset="0.0707965" stop-color="#F39726" stop-opacity="1"/><stop offset="0.079646" stop-color="#F39728" stop-opacity="1"/><stop offset="0.0884956" stop-color="#F3962A" stop-opacity="1"/><stop offset="0.0973451" stop-color="#F3962B" stop-opacity="1"/><stop offset="0.106195" stop-color="#F3962D" stop-opacity="1"/><stop offset="0.115044" stop-color="#F3962F" stop-opacity="1"/><stop offset="0.123894" stop-color="#F39531" stop-opacity="1"/><stop offset="0.132743" stop-color="#F39532" stop-opacity="1"/><stop offset="0.141593" stop-color="#F39534" stop-opacity="1"/><stop offset="0.150442" stop-color="#F39436" stop-opacity="1"/><stop offset="0.159292" stop-color="#F39437" stop-opacity="1"/><stop offset="0.168142" stop-color="#F39439" stop-opacity="1"/><stop offset="0.176991" stop-color="#F3933A" stop-opacity="1"/><stop offset="0.185841" stop-color="#F3933C" stop-opacity="1"/><stop offset="0.19469" stop-color="#F3933E" stop-opacity="1"/><stop offset="0.20354" stop-color="#F3923F" stop-opacity="1"/><stop offset="0.212389" stop-color="#F39241" stop-opacity="1"/><stop offset="0.221239" stop-color="#F29142" stop-opacity="1"/><stop offset="0.230089" stop-color="#F29144" stop-opacity="1"/><stop offset="0.238938" stop-color="#F29045" stop-opacity="1"/><stop offset="0.247788" stop-color="#F29047" stop-opacity="1"/><stop offset="0.256637" stop-color="#F28F48" stop-opacity="1"/><stop offset="0.265487" stop-color="#F28F4A" stop-opacity="1"/><stop offset="0.274336" stop-color="#F28E4B" stop-opacity="1"/><stop offset="0.283186" stop-color="#F28E4C" stop-opacity="1"/><stop offset="0.292035" stop-color="#F28D4E" stop-opacity="1"/><stop offset="0.300885" stop-color="#F28C4F" stop-opacity="1"/><stop offset="0.309735" stop-color="#F28C51" stop-opacity="1"/><stop offset="0.318584" stop-color="#F18B52" stop-opacity="1"/><stop offset="0.327434" stop-color="#F18B53" stop-opacity="1"/><stop offset="0.336283" stop-color="#F18A55" stop-opacity="1"/><stop offset="0.345133" stop-color="#F18956" stop-opacity="1"/><stop offset="0.353982" stop-color="#F18957" stop-opacity="1"/><stop offset="0.362832" stop-color="#F18859" stop-opacity="1"/><stop offset="0.371681" stop-color="#F1875A" stop-opacity="1"/><stop offset="0.380531" stop-color="#F1865B" stop-opacity="1"/><stop offset="0.389381" stop-color="#F0865C" stop-opacity="1"/><stop offset="0.39823" stop-color="#F0855E" stop-opacity="1"/><stop offset="0.40708" stop-color="#F0845F" stop-opacity="1"/><stop offset="0.415929" stop-color="#F08360" stop-opacity="1"/><stop offset="0.424779" stop-color="#F08261" stop-opacity="1"/><stop offset="0.433628" stop-color="#F08262" stop-opacity="1"/><stop offset="0.442478" stop-color="#F08163" stop-opacity="1"/><stop offset="0.451327" stop-color="#EF8065" stop-opacity="1"/><stop offset="0.460177" stop-color="#EF7F66" stop-opacity="1"/><stop offset="0.469027" stop-color="#EF7E67" stop-opacity="1"/><stop offset="0.477876" stop-color="#EF7D68" stop-opacity="1"/><stop offset="0.486726" stop-color="#EF7C69" stop-opacity="1"/><stop offset="0.495575" stop-color="#EF7B6A" stop-opacity="1"/><stop offset="0.504425" stop-color="#EF7A6B" stop-opacity="1"/><stop offset="0.513274" stop-color="#EE796C" stop-opacity="1"/><stop offset="0.522124" stop-color="#EE786D" stop-opacity="1"/><stop offset="0.530973" stop-color="#EE776E" stop-opacity="1"/><stop offset="0.539823" stop-color="#EE766F" stop-opacity="1"/><stop offset="0.548673" stop-color="#EE7570" stop-opacity="1"/><stop offset="0.557522" stop-color="#ED7471" stop-opacity="1"/><stop offset="0.566372" stop-color="#ED7372" stop-opacity="1"/><stop offset="0.575221" stop-color="#ED7273" stop-opacity="1"/><stop offset="0.584071" stop-color="#ED7173" stop-opacity="1"/><stop offset="0.59292" stop-color="#ED7074" stop-opacity="1"/><stop offset="0.60177" stop-color="#ED6F75" stop-opacity="1"/><stop offset="0.610619" stop-color="#EC6E76" stop-opacity="1"/><stop offset="0.619469" stop-color="#EC6D77" stop-opacity="1"/><stop offset="0.628319" stop-color="#EC6C78" stop-opacity="1"/><stop offset="0.637168" stop-color="#EC6A78" stop-opacity="1"/><stop offset="0.646018" stop-color="#EC6979" stop-opacity="1"/><stop offset="0.654867" stop-color="#EB687A" stop-opacity="1"/><stop offset="0.663717" stop-color="#EB677B" stop-opacity="1"/><stop offset="0.672566" stop-color="#EB667B" stop-opacity="1"/><stop offset="0.681416" stop-color="#EB647C" stop-opacity="1"/><stop offset="0.690265" stop-color="#EB637D" stop-opacity="1"/><stop offset="0.699115" stop-color="#EA627E" stop-opacity="1"/><stop offset="0.707965" stop-color="#EA617E" stop-opacity="1"/><stop offset="0.716814" stop-color="#EA5F7F" stop-opacity="1"/><stop offset="0.725664" stop-color="#EA5E7F" stop-opacity="1"/><stop offset="0.734513" stop-color="#E95D80" stop-opacity="1"/><stop offset="0.743363" stop-color="#E95B81" stop-opacity="1"/><stop offset="0.752212" stop-color="#E95A81" stop-opacity="1"/><stop offset="0.761062" stop-color="#E95982" stop-opacity="1"/><stop offset="0.769912" stop-color="#E85782" stop-opacity="1"/><stop offset="0.778761" stop-color="#E85683" stop-opacity="1"/><stop offset="0.787611" stop-color="#E85483" stop-opacity="1"/><stop offset="0.79646" stop-color="#E85384" stop-opacity="1"/><stop offset="0.80531" stop-color="#E85284" stop-opacity="1"/><stop offset="0.814159" stop-color="#E75085" stop-opacity="1"/><stop offset="0.823009" stop-color="#E74F85" stop-opacity="1"/><stop offset="0.831858" stop-color="#E74D85" stop-opacity="1"/><stop offset="0.840708" stop-color="#E64C86" stop-opacity="1"/><stop offset="0.849558" stop-color="#E64A86" stop-opacity="1"/><stop offset="0.858407" stop-color="#E64987" stop-opacity="1"/><stop offset="0.867257" stop-color="#E64787" stop-opacity="1"/><stop offset="0.876106" stop-color="#E54687" stop-opacity="1"/><stop offset="0.884956" stop-color="#E54488" stop-opacity="1"/><stop offset="0.893805" stop-color="#E54288" stop-opacity="1"/><stop offset="0.902655" stop-color="#E54188" stop-opacity="1"/><stop offset="0.911504" stop-color="#E43F88" stop-opacity="1"/><stop offset="0.920354" stop-color="#E43E89" stop-opacity="1"/><stop offset="0.929204" stop-color="#E43C89" stop-opacity="1"/><stop offset="0.938053" stop-color="#E43A89" stop-opacity="1"/><stop offset="0.946903" stop-color="#E33989" stop-opacity="1"/><stop offset="0.955752" stop-color="#E33789" stop-opacity="1"/><stop offset="0.964602" stop-color="#E33589" stop-opacity="1"/><stop offset="0.973451" stop-color="#E23489" stop-opacity="1"/><stop offset="0.982301" stop-color="#E23289" stop-opacity="1"/><stop offset="0.99115" stop-color="#E23089" stop-opacity="1"/><stop offset="1" stop-color="#E22F8A" stop-opacity="1"/></linearGradient><linearGradient x1="877.197" y1="1594.22" x2="877.197" y2="1424.19" gradientUnits="userSpaceOnUse" spreadMethod="reflect" id="stroke6"><stop offset="0" stop-color="#F49818" stop-opacity="1"/><stop offset="0.00884956" stop-color="#F39719" stop-opacity="1"/><stop offset="0.0176991" stop-color="#F3971B" stop-opacity="1"/><stop offset="0.0265487" stop-color="#F3971D" stop-opacity="1"/><stop offset="0.0353982" stop-color="#F3971F" stop-opacity="1"/><stop offset="0.0442478" stop-color="#F39721" stop-opacity="1"/><stop offset="0.0530973" stop-color="#F39723" stop-opacity="1"/><stop offset="0.0619469" stop-color="#F39724" stop-opacity="1"/><stop offset="0.0707965" stop-color="#F39726" stop-opacity="1"/><stop offset="0.079646" stop-color="#F39728" stop-opacity="1"/><stop offset="0.0884956" stop-color="#F3962A" stop-opacity="1"/><stop offset="0.0973451" stop-color="#F3962B" stop-opacity="1"/><stop offset="0.106195" stop-color="#F3962D" stop-opacity="1"/><stop offset="0.115044" stop-color="#F3962F" stop-opacity="1"/><stop offset="0.123894" stop-color="#F39531" stop-opacity="1"/><stop offset="0.132743" stop-color="#F39532" stop-opacity="1"/><stop offset="0.141593" stop-color="#F39534" stop-opacity="1"/><stop offset="0.150442" stop-color="#F39436" stop-opacity="1"/><stop offset="0.159292" stop-color="#F39437" stop-opacity="1"/><stop offset="0.168142" stop-color="#F39439" stop-opacity="1"/><stop offset="0.176991" stop-color="#F3933A" stop-opacity="1"/><stop offset="0.185841" stop-color="#F3933C" stop-opacity="1"/><stop offset="0.19469" stop-color="#F3933E" stop-opacity="1"/><stop offset="0.20354" stop-color="#F3923F" stop-opacity="1"/><stop offset="0.212389" stop-color="#F39241" stop-opacity="1"/><stop offset="0.221239" stop-color="#F29142" stop-opacity="1"/><stop offset="0.230089" stop-color="#F29144" stop-opacity="1"/><stop offset="0.238938" stop-color="#F29045" stop-opacity="1"/><stop offset="0.247788" stop-color="#F29047" stop-opacity="1"/><stop offset="0.256637" stop-color="#F28F48" stop-opacity="1"/><stop offset="0.265487" stop-color="#F28F4A" stop-opacity="1"/><stop offset="0.274336" stop-color="#F28E4B" stop-opacity="1"/><stop offset="0.283186" stop-color="#F28E4C" stop-opacity="1"/><stop offset="0.292035" stop-color="#F28D4E" stop-opacity="1"/><stop offset="0.300885" stop-color="#F28C4F" stop-opacity="1"/><stop offset="0.309735" stop-color="#F28C51" stop-opacity="1"/><stop offset="0.318584" stop-color="#F18B52" stop-opacity="1"/><stop offset="0.327434" stop-color="#F18B53" stop-opacity="1"/><stop offset="0.336283" stop-color="#F18A55" stop-opacity="1"/><stop offset="0.345133" stop-color="#F18956" stop-opacity="1"/><stop offset="0.353982" stop-color="#F18957" stop-opacity="1"/><stop offset="0.362832" stop-color="#F18859" stop-opacity="1"/><stop offset="0.371681" stop-color="#F1875A" stop-opacity="1"/><stop offset="0.380531" stop-color="#F1865B" stop-opacity="1"/><stop offset="0.389381" stop-color="#F0865C" stop-opacity="1"/><stop offset="0.39823" stop-color="#F0855E" stop-opacity="1"/><stop offset="0.40708" stop-color="#F0845F" stop-opacity="1"/><stop offset="0.415929" stop-color="#F08360" stop-opacity="1"/><stop offset="0.424779" stop-color="#F08261" stop-opacity="1"/><stop offset="0.433628" stop-color="#F08262" stop-opacity="1"/><stop offset="0.442478" stop-color="#F08163" stop-opacity="1"/><stop offset="0.451327" stop-color="#EF8065" stop-opacity="1"/><stop offset="0.460177" stop-color="#EF7F66" stop-opacity="1"/><stop offset="0.469027" stop-color="#EF7E67" stop-opacity="1"/><stop offset="0.477876" stop-color="#EF7D68" stop-opacity="1"/><stop offset="0.486726" stop-color="#EF7C69" stop-opacity="1"/><stop offset="0.495575" stop-color="#EF7B6A" stop-opacity="1"/><stop offset="0.504425" stop-color="#EF7A6B" stop-opacity="1"/><stop offset="0.513274" stop-color="#EE796C" stop-opacity="1"/><stop offset="0.522124" stop-color="#EE786D" stop-opacity="1"/><stop offset="0.530973" stop-color="#EE776E" stop-opacity="1"/><stop offset="0.539823" stop-color="#EE766F" stop-opacity="1"/><stop offset="0.548673" stop-color="#EE7570" stop-opacity="1"/><stop offset="0.557522" stop-color="#ED7471" stop-opacity="1"/><stop offset="0.566372" stop-color="#ED7372" stop-opacity="1"/><stop offset="0.575221" stop-color="#ED7273" stop-opacity="1"/><stop offset="0.584071" stop-color="#ED7173" stop-opacity="1"/><stop offset="0.59292" stop-color="#ED7074" stop-opacity="1"/><stop offset="0.60177" stop-color="#ED6F75" stop-opacity="1"/><stop offset="0.610619" stop-color="#EC6E76" stop-opacity="1"/><stop offset="0.619469" stop-color="#EC6D77" stop-opacity="1"/><stop offset="0.628319" stop-color="#EC6C78" stop-opacity="1"/><stop offset="0.637168" stop-color="#EC6A78" stop-opacity="1"/><stop offset="0.646018" stop-color="#EC6979" stop-opacity="1"/><stop offset="0.654867" stop-color="#EB687A" stop-opacity="1"/><stop offset="0.663717" stop-color="#EB677B" stop-opacity="1"/><stop offset="0.672566" stop-color="#EB667B" stop-opacity="1"/><stop offset="0.681416" stop-color="#EB647C" stop-opacity="1"/><stop offset="0.690265" stop-color="#EB637D" stop-opacity="1"/><stop offset="0.699115" stop-color="#EA627E" stop-opacity="1"/><stop offset="0.707965" stop-color="#EA617E" stop-opacity="1"/><stop offset="0.716814" stop-color="#EA5F7F" stop-opacity="1"/><stop offset="0.725664" stop-color="#EA5E7F" stop-opacity="1"/><stop offset="0.734513" stop-color="#E95D80" stop-opacity="1"/><stop offset="0.743363" stop-color="#E95B81" stop-opacity="1"/><stop offset="0.752212" stop-color="#E95A81" stop-opacity="1"/><stop offset="0.761062" stop-color="#E95982" stop-opacity="1"/><stop offset="0.769912" stop-color="#E85782" stop-opacity="1"/><stop offset="0.778761" stop-color="#E85683" stop-opacity="1"/><stop offset="0.787611" stop-color="#E85483" stop-opacity="1"/><stop offset="0.79646" stop-color="#E85384" stop-opacity="1"/><stop offset="0.80531" stop-color="#E85284" stop-opacity="1"/><stop offset="0.814159" stop-color="#E75085" stop-opacity="1"/><stop offset="0.823009" stop-color="#E74F85" stop-opacity="1"/><stop offset="0.831858" stop-color="#E74D85" stop-opacity="1"/><stop offset="0.840708" stop-color="#E64C86" stop-opacity="1"/><stop offset="0.849558" stop-color="#E64A86" stop-opacity="1"/><stop offset="0.858407" stop-color="#E64987" stop-opacity="1"/><stop offset="0.867257" stop-color="#E64787" stop-opacity="1"/><stop offset="0.876106" stop-color="#E54687" stop-opacity="1"/><stop offset="0.884956" stop-color="#E54488" stop-opacity="1"/><stop offset="0.893805" stop-color="#E54288" stop-opacity="1"/><stop offset="0.902655" stop-color="#E54188" stop-opacity="1"/><stop offset="0.911504" stop-color="#E43F88" stop-opacity="1"/><stop offset="0.920354" stop-color="#E43E89" stop-opacity="1"/><stop offset="0.929204" stop-color="#E43C89" stop-opacity="1"/><stop offset="0.938053" stop-color="#E43A89" stop-opacity="1"/><stop offset="0.946903" stop-color="#E33989" stop-opacity="1"/><stop offset="0.955752" stop-color="#E33789" stop-opacity="1"/><stop offset="0.964602" stop-color="#E33589" stop-opacity="1"/><stop offset="0.973451" stop-color="#E23489" stop-opacity="1"/><stop offset="0.982301" stop-color="#E23289" stop-opacity="1"/><stop offset="0.99115" stop-color="#E23089" stop-opacity="1"/><stop offset="1" stop-color="#E22F8A" stop-opacity="1"/></linearGradient></defs><g clip-path="url(#clip0)" transform="translate(-770 -1397)"><path d="M0 0C43.7947 0 87.5893 37.2038 87.5893 74.4076 87.5893 111.611 131.384 148.815 175.179 148.815" stroke="url(#stroke1)" stroke-width="20.625" stroke-linecap="butt" stroke-linejoin="miter" stroke-miterlimit="8" fill="none" fill-rule="evenodd" transform="matrix(1 0 0 -1 1089.5 1584.32)"/><path d="M1508.97 1485.11 1525.06 1485.11 1525.06 1570.09 1508.97 1570.09ZM1613.43 1462.05 1629.88 1462.05 1629.88 1485.11 1655.7 1485.11 1655.7 1499.41 1629.88 1499.41 1629.88 1542.72C1629.88 1552.15 1632.56 1556.86 1637.92 1556.86 1642.65 1556.86 1648.37 1554.86 1655.09 1550.87L1658.83 1564.35C1649.28 1569.54 1639.63 1572.14 1629.88 1572.14 1618.68 1572.14 1613.08 1563.71 1613.08 1546.85L1613.08 1499.41 1597.71 1499.41 1597.71 1485.11 1613.43 1485.11ZM1507.72 1442.22 1527.83 1442.22 1527.83 1462.14 1507.72 1462.14ZM1350.57 1435.52C1362.41 1435.52 1374.25 1438.68 1386.1 1445L1383.04 1462.88C1376.41 1458.8 1370.96 1455.82 1366.7 1453.96 1362.43 1452.09 1357 1451.15 1350.4 1451.15 1342.95 1451.15 1336.96 1453.16 1332.45 1457.17 1327.94 1461.18 1325.69 1465.84 1325.69 1471.15 1325.69 1475.09 1326.98 1478.68 1329.56 1481.92 1332.14 1485.17 1335.38 1487.58 1339.3 1489.17 1340.98 1489.59 1345.4 1490.71 1352.55 1492.53 1359.7 1494.34 1364.24 1495.73 1366.17 1496.69 1373.74 1499.71 1380.04 1504.44 1385.07 1510.88 1390.1 1517.32 1392.62 1524.92 1392.62 1533.68 1392.62 1544.52 1388.54 1553.97 1380.39 1562.03 1372.24 1570.08 1361.82 1574.11 1349.14 1574.11 1334.18 1574.11 1319.68 1569.61 1305.66 1560.62L1309 1542.72C1322.98 1552.86 1336.36 1557.93 1349.14 1557.93 1356.6 1557.93 1362.63 1555.67 1367.22 1551.14 1371.82 1546.61 1374.12 1541.4 1374.12 1535.52 1374.12 1531.17 1372.8 1527.16 1370.17 1523.48 1367.54 1519.8 1364 1517.06 1359.54 1515.25 1359.37 1515.17 1351.92 1513.17 1337.19 1509.27 1329.42 1507.21 1322.56 1503.01 1316.63 1496.68 1310.69 1490.34 1307.73 1482.51 1307.73 1473.17 1307.73 1463.28 1311.7 1454.53 1319.63 1446.93 1327.57 1439.32 1337.88 1435.52 1350.57 1435.52ZM1414.26 1434.35 1431.6 1434.35 1431.6 1496.45C1437.1 1487.7 1445.26 1483.3 1456.08 1483.23 1460.96 1483.23 1465.2 1484.02 1468.78 1485.61 1472.37 1487.19 1475.07 1489.1 1476.88 1491.33 1478.68 1493.57 1480.07 1496.3 1481.04 1499.54 1482 1502.77 1482.58 1505.56 1482.78 1507.91 1482.97 1510.25 1483.07 1512.8 1483.07 1515.58L1483.07 1570.09 1465.11 1570.09 1465.11 1517.05C1465.11 1515.04 1465.08 1513.47 1465.02 1512.33 1464.97 1511.19 1464.64 1509.58 1464.03 1507.5 1463.43 1505.42 1462.63 1503.81 1461.65 1502.68 1460.66 1501.54 1459.09 1500.5 1456.94 1499.56 1454.79 1498.62 1452.12 1498.15 1448.93 1498.15 1443.2 1498.15 1438.99 1500.66 1436.28 1505.68 1433.58 1510.69 1432.22 1516.95 1432.22 1524.44L1432.22 1570.09 1414.26 1570.09ZM1589.1 1432.21C1593.72 1432.21 1599.17 1433.03 1605.45 1434.66L1605.45 1450.26C1598.7 1448.17 1593.13 1447.13 1588.74 1447.13 1584.95 1447.13 1581.47 1448.21 1578.3 1450.35 1575.14 1452.5 1573.55 1456.37 1573.55 1461.97L1573.55 1485.11 1594.28 1485.11 1594.28 1499.41 1574.09 1499.41 1574.09 1570.09 1556.75 1570.09 1556.75 1499.41 1543.17 1499.41 1543.17 1485.11 1556.75 1485.11 1556.75 1473.49C1556.75 1473.09 1556.72 1472.4 1556.66 1471.42 1556.6 1470.44 1556.57 1469.67 1556.57 1469.11 1556.57 1457.37 1559.83 1448.28 1566.36 1441.85 1572.88 1435.42 1580.46 1432.21 1589.1 1432.21Z" fill="url(#fill2)" fill-rule="evenodd"/><text fill="#000000" fill-opacity="0" font-family="Arial,Arial_MSFontService,sans-serif" font-size="141.896" direction="ltr" writing-mode="lr-tb" x="1305.66" y="1556.37">Shift</text><path d="M2031.23 1534.25C2028.8 1534.25 2025.67 1534.49 2021.84 1534.97 2018.01 1535.44 2014.09 1536.17 2010.07 1537.14 2006.05 1538.11 2002.92 1539.49 2000.7 1541.28 1998.48 1543.07 1997.37 1545.06 1997.37 1547.24 1997.37 1550 1998.76 1552.35 2001.55 1554.3 2004.34 1556.24 2007.99 1557.22 2012.51 1557.22 2017.46 1557.22 2021.82 1556.21 2025.59 1554.2 2029.35 1552.19 2031.23 1548.87 2031.23 1544.23ZM2221.11 1485.11 2237.19 1485.11 2237.19 1570.09 2221.11 1570.09ZM1795.79 1485.11 1813.2 1485.11C1821.36 1503.9 1827.42 1518.38 1831.37 1528.55 1835.32 1538.72 1837.62 1545.13 1838.28 1547.76L1838.54 1549.53 1838.74 1548.66C1841.74 1536.77 1849.39 1515.59 1861.69 1485.11L1878.45 1485.11 1838.77 1584.75C1835.05 1593.61 1831.52 1599.63 1828.2 1602.83 1824.88 1606.02 1820.75 1607.61 1815.81 1607.61 1810.63 1607.61 1805.63 1606.99 1800.81 1605.74L1799.82 1590.72C1807.64 1592.81 1812.67 1593.85 1814.92 1593.85 1817.57 1593.85 1819.62 1592.83 1821.06 1590.77 1822.5 1588.71 1825.05 1583.21 1828.71 1574.28 1829.29 1572.82 1829.83 1571.53 1830.34 1570.43 1830.72 1569.57 1830.91 1568.85 1830.91 1568.25 1830.91 1567.66 1830.65 1566.82 1830.14 1565.75ZM2117.23 1483.23C2129.96 1483.23 2137.91 1488.23 2141.05 1498.23 2147.5 1488.23 2156.53 1483.23 2168.16 1483.23 2173.04 1483.23 2177.27 1484.05 2180.84 1485.69 2184.42 1487.33 2187.11 1489.27 2188.9 1491.51 2190.7 1493.74 2192.07 1496.52 2193.04 1499.83 2194 1503.15 2194.55 1505.94 2194.68 1508.21 2194.81 1510.47 2194.88 1512.93 2194.88 1515.58L2194.88 1570.09 2176.92 1570.09 2176.92 1517.05C2176.92 1516.81 2176.92 1516.49 2176.92 1516.09 2176.92 1515.68 2176.8 1514.75 2176.56 1513.29 2176.32 1511.83 2176.02 1510.55 2175.66 1509.44 2175.3 1508.34 2174.72 1507.06 2173.91 1505.59 2173.11 1504.12 2172.17 1502.87 2171.09 1501.85 2170.01 1500.83 2168.6 1499.96 2166.86 1499.24 2165.12 1498.52 2163.17 1498.15 2161.01 1498.15 2155.28 1498.15 2151.05 1500.66 2148.31 1505.68 2145.58 1510.7 2144.21 1516.95 2144.21 1524.44L2144.21 1570.09 2126.25 1570.09 2126.25 1517.05C2126.25 1515.04 2126.23 1513.47 2126.17 1512.33 2126.11 1511.19 2125.78 1509.58 2125.18 1507.5 2124.58 1505.42 2123.78 1503.81 2122.79 1502.68 2121.81 1501.54 2120.24 1500.5 2118.08 1499.56 2115.93 1498.62 2113.26 1498.15 2110.08 1498.15 2104.35 1498.15 2100.13 1500.66 2097.43 1505.68 2094.72 1510.69 2093.37 1516.95 2093.37 1524.44L2093.37 1570.09 2075.41 1570.09 2075.41 1484.13 2092.39 1484.13 2092.39 1497.16C2097.65 1487.88 2105.93 1483.23 2117.23 1483.23ZM1934.47 1483.23C1939.24 1483.23 1943.37 1483.95 1946.87 1485.4 1950.37 1486.84 1953.06 1488.66 1954.95 1490.84 1956.84 1493.03 1958.27 1495.68 1959.24 1498.81 1960.2 1501.93 1960.81 1504.74 1961.07 1507.23 1961.33 1509.72 1961.45 1512.5 1961.45 1515.58L1961.45 1570.09 1943.49 1570.09 1943.49 1517.05C1943.49 1515.04 1943.46 1513.47 1943.41 1512.33 1943.35 1511.19 1943.02 1509.58 1942.42 1507.5 1941.81 1505.42 1941.02 1503.81 1940.03 1502.68 1939.05 1501.54 1937.48 1500.5 1935.32 1499.56 1933.17 1498.62 1930.5 1498.15 1927.32 1498.15 1921.59 1498.15 1917.37 1500.66 1914.67 1505.68 1911.96 1510.69 1910.61 1516.95 1910.61 1524.44L1910.61 1570.09 1892.65 1570.09 1892.65 1484.13 1909.63 1484.13 1909.63 1497.16C1914.88 1487.88 1923.17 1483.23 1934.47 1483.23ZM2369.41 1482.16C2378.38 1482.16 2387.88 1484.27 2397.91 1488.5L2395.38 1503.54C2393.73 1503.24 2392.31 1502.83 2391.13 1502.3 2389.95 1501.77 2389.28 1501.45 2389.11 1501.33 2388.94 1501.22 2388.27 1500.92 2387.09 1500.43 2385.92 1499.94 2385.13 1499.63 2384.74 1499.5 2384.34 1499.37 2383.65 1499.11 2382.65 1498.72 2381.65 1498.33 2380.87 1498.11 2380.31 1498.06 2379.74 1498 2378.88 1497.83 2377.71 1497.53 2376.54 1497.23 2375.52 1497.05 2374.65 1496.99 2373.78 1496.93 2372.74 1496.87 2371.54 1496.81 2370.34 1496.75 2369.09 1496.72 2367.8 1496.72 2362.7 1496.72 2359.17 1497.68 2357.21 1499.59 2355.24 1501.51 2354.26 1503.69 2354.26 1506.14 2354.26 1509.52 2355.68 1511.98 2358.52 1513.51 2361.36 1515.05 2365.68 1516.32 2371.5 1517.33 2377.32 1518.34 2381.25 1519.39 2383.31 1520.48 2388.51 1522.7 2392.76 1525.9 2396.05 1530.1 2399.35 1534.3 2401 1539.33 2401 1545.21 2401 1548.17 2400.55 1551.08 2399.67 1553.92 2398.78 1556.76 2397.25 1559.62 2395.07 1562.51 2392.88 1565.4 2389.56 1567.72 2385.11 1569.49 2380.65 1571.26 2375.41 1572.14 2369.37 1572.14 2358.38 1572.08 2347.47 1569.08 2336.64 1563.15L2339.33 1547.99C2341.04 1548.26 2342.58 1548.81 2343.95 1549.65 2345.33 1550.49 2346.25 1551.03 2346.73 1551.28 2347.22 1551.54 2348.28 1552.07 2349.94 1552.88 2351.59 1553.7 2352.97 1554.29 2354.07 1554.65 2355.17 1555.01 2356.58 1555.43 2358.3 1555.92 2360.01 1556.4 2361.75 1556.74 2363.5 1556.93 2365.25 1557.12 2367.16 1557.22 2369.23 1557.22 2374.85 1557.22 2378.8 1556.09 2381.1 1553.85 2383.4 1551.6 2384.55 1549.13 2384.55 1546.46 2384.55 1543.97 2383.59 1541.83 2381.66 1540.06 2379.73 1538.28 2377.68 1537.08 2375.52 1536.45 2374.27 1536.08 2371.53 1535.46 2367.28 1534.6 2363.04 1533.73 2360.16 1533.02 2358.66 1532.48 2352.91 1530.71 2348 1527.77 2343.93 1523.66 2339.86 1519.54 2337.82 1514.36 2337.82 1508.11 2337.82 1505.1 2338.26 1502.26 2339.15 1499.59 2340.03 1496.92 2341.57 1494.15 2343.77 1491.29 2345.97 1488.44 2349.28 1486.2 2353.72 1484.58 2358.16 1482.97 2363.39 1482.16 2369.41 1482.16ZM2298.91 1482.16C2304.77 1482.16 2309.68 1482.74 2313.63 1483.89 2317.59 1485.04 2322.78 1487.44 2329.2 1491.09L2326.42 1505.85C2319.04 1502 2313.64 1499.59 2310.23 1498.62 2307.33 1497.83 2303.5 1497.44 2298.73 1497.44 2291.12 1497.44 2285.23 1500.38 2281.05 1506.27 2276.87 1512.16 2274.78 1519.24 2274.78 1527.51 2274.78 1536.19 2277 1543.25 2281.44 1548.7 2285.88 1554.14 2291.58 1556.86 2298.55 1556.86 2307.74 1556.86 2317.87 1553.58 2328.95 1547.02L2330.1 1561.96C2319.57 1568.69 2309 1572.08 2298.37 1572.14 2286.62 1572.14 2276.76 1567.79 2268.79 1559.08 2260.81 1550.37 2256.82 1539.84 2256.82 1527.51 2256.82 1515.75 2260.65 1505.25 2268.29 1496.01 2275.93 1486.78 2286.14 1482.16 2298.91 1482.16ZM2016.9 1482.16C2025.8 1482.16 2033.28 1485.1 2039.33 1490.99 2045.38 1496.87 2048.67 1504.16 2049.19 1512.85L2049.19 1570.09 2031.68 1570.09 2031.68 1565.21 2031.07 1565.74C2029.13 1566.94 2025.52 1568.3 2020.22 1569.84 2014.93 1571.37 2009.19 1572.14 2003.01 1572.14 1995.49 1572.14 1989.87 1569.47 1986.15 1564.13 1982.43 1558.78 1980.57 1553.29 1980.57 1547.66 1980.57 1542.64 1982.42 1538.31 1986.12 1534.66 1989.82 1531.01 1994.52 1528.34 2000.21 1526.65 2005.91 1524.96 2011.45 1523.7 2016.83 1522.88 2022.22 1522.06 2027.02 1521.65 2031.23 1521.65L2031.23 1517.33C2031.01 1509.96 2029.43 1503.72 2026.49 1498.6 2024.04 1497.35 2020.79 1496.72 2016.72 1496.72 2007.74 1496.72 1998.12 1499.82 1987.84 1506.02L1986.52 1491.02C1996.53 1485.11 2006.65 1482.16 2016.9 1482.16ZM1697.85 1453.3 1697.85 1556.32 1722.16 1556.32C1736.83 1556.32 1748.24 1550.96 1756.39 1540.24 1763.35 1531.13 1766.84 1519.71 1766.84 1505.97 1766.84 1490.91 1762.92 1478.36 1755.08 1468.34 1747.25 1458.31 1736.27 1453.3 1722.16 1453.3ZM2219.86 1442.22 2239.96 1442.22 2239.96 1462.14 2219.86 1462.14ZM1678.28 1439.54 1725.02 1439.54C1737.58 1439.54 1748.72 1443.39 1758.44 1451.09 1767.09 1455.35 1773.92 1462.66 1778.91 1473.02 1783.91 1483.39 1786.4 1494.31 1786.4 1505.8 1786.4 1523.2 1781.25 1537.79 1770.94 1549.57 1760.63 1561.34 1748.46 1568.06 1734.43 1569.73 1732.46 1569.97 1729.44 1570.09 1725.37 1570.09L1678.28 1570.09Z" fill="url(#fill3)" fill-rule="evenodd"/><text fill="#000000" fill-opacity="0" font-family="Arial,Arial_MSFontService,sans-serif" font-size="168.078" direction="ltr" writing-mode="lr-tb" x="1678.28" y="1586.61">Dynamics</text><path d="M1089.89 1583.91C1046.05 1583.91 1002.2 1546.56 1002.2 1509.2 1002.2 1471.85 958.348 1434.5 914.5 1434.5" stroke="url(#stroke4)" stroke-width="20.625" stroke-linecap="butt" stroke-linejoin="miter" stroke-miterlimit="8" fill="none" fill-rule="evenodd"/><path d="M0 0C43.7947 0 87.5893 37.2038 87.5893 74.4076 87.5893 111.611 131.384 148.815 175.179 148.815" stroke="url(#stroke5)" stroke-width="20.625" stroke-linecap="butt" stroke-linejoin="miter" stroke-miterlimit="8" fill="none" fill-rule="evenodd" transform="matrix(1 0 0 -1 965.5 1583.32)"/><path d="M964.894 1583.91C921.045 1583.91 877.197 1546.56 877.197 1509.2 877.197 1471.85 833.349 1434.5 789.5 1434.5" stroke="url(#stroke6)" stroke-width="20.625" stroke-linecap="butt" stroke-linejoin="miter" stroke-miterlimit="8" fill="none" fill-rule="evenodd"/><path d="M0 16.5C-4.45598e-15 7.3873 7.83503 0 17.5 0 27.165-4.20134e-15 35.0001 7.3873 35.0001 16.5 35.0001 25.6127 27.165 33 17.5 33 7.83503 33-1.33679e-14 25.6127 0 16.5Z" stroke="#E22F8A" stroke-width="4.58333" stroke-linecap="butt" stroke-linejoin="miter" stroke-miterlimit="8" stroke-opacity="1" fill="#F49818" fill-rule="evenodd" fill-opacity="1" transform="matrix(-1 0 0 1 1108.5 1569.5)"/><path d="M0 16.5C-4.45598e-15 7.3873 7.83503 0 17.5 0 27.165-4.20134e-15 35.0001 7.3873 35.0001 16.5 35.0001 25.6127 27.165 33 17.5 33 7.83503 33-1.33679e-14 25.6127 0 16.5Z" stroke="#F49818" stroke-width="4.58333" stroke-linecap="butt" stroke-linejoin="miter" stroke-miterlimit="8" stroke-opacity="1" fill="#E22F8A" fill-rule="evenodd" fill-opacity="1" transform="matrix(-1 0 0 1 982.5 1569.5)"/><path d="M0 16C-4.45598e-15 7.16344 7.83503 0 17.5 0 27.165-4.07402e-15 35.0001 7.16344 35.0001 16 35.0001 24.8365 27.165 32 17.5 32 7.83503 32-1.33679e-14 24.8365 0 16Z" stroke="#E22F8A" stroke-width="4.58333" stroke-linecap="butt" stroke-linejoin="miter" stroke-miterlimit="8" stroke-opacity="1" fill="#F49818" fill-rule="evenodd" fill-opacity="1" transform="matrix(-1 0 0 1 1282.5 1418.5)"/><path d="M0 16C-4.32866e-15 7.16344 7.61117 0 17 0 26.3889-4.07402e-15 34 7.16344 34 16 34 24.8365 26.3889 32 17 32 7.61117 32-1.2986e-14 24.8365 0 16Z" stroke="#E22F8A" stroke-width="4.58333" stroke-linecap="butt" stroke-linejoin="miter" stroke-miterlimit="8" stroke-opacity="1" fill="#F49818" fill-rule="evenodd" fill-opacity="1" transform="matrix(-1 0 0 1 931.5 1418.5)"/><path d="M0 16.0002C-4.45598e-15 7.16352 7.83503 0 17.5 0 27.165-4.07407e-15 35.0001 7.16352 35.0001 16.0002 35.0001 24.8368 27.165 32.0003 17.5 32.0003 7.83503 32.0003-1.33679e-14 24.8368 0 16.0002Z" stroke="#F49818" stroke-width="4.58333" stroke-linecap="butt" stroke-linejoin="miter" stroke-miterlimit="8" stroke-opacity="1" fill="#E22F8A" fill-rule="evenodd" fill-opacity="1" transform="matrix(-1 0 0 1 1157.5 1419.5)"/><path d="M0 16C-4.45598e-15 7.16344 7.83503 0 17.5 0 27.165-4.07402e-15 35.0001 7.16344 35.0001 16 35.0001 24.8365 27.165 32 17.5 32 7.83503 32-1.33679e-14 24.8365 0 16Z" stroke="#F49818" stroke-width="4.58333" stroke-linecap="butt" stroke-linejoin="miter" stroke-miterlimit="8" stroke-opacity="1" fill="#E22F8A" fill-rule="evenodd" fill-opacity="1" transform="matrix(-1 0 0 1 807.5 1418.5)"/></g></svg>