<svg width="1581" height="257" xmlns="http://www.w3.org/2000/svg" xmlns:xlink="http://www.w3.org/1999/xlink" overflow="hidden"><defs><clipPath id="clip0"><rect x="889" y="1393" width="1581" height="257"/></clipPath><linearGradient x1="1002.2" y1="1594.22" x2="1002.2" y2="1424.19" gradientUnits="userSpaceOnUse" spreadMethod="reflect" id="stroke1"><stop offset="0" stop-color="#E22F8A" stop-opacity="1"/><stop offset="0.07" stop-color="#E22F8A" stop-opacity="1"/><stop offset="1" stop-color="#F49818" stop-opacity="1"/></linearGradient><linearGradient x1="87.5893" y1="-10.3125" x2="87.5893" y2="159.128" gradientUnits="userSpaceOnUse" spreadMethod="reflect" id="stroke2"><stop offset="0" stop-color="#E22F8A" stop-opacity="1"/><stop offset="0.00884956" stop-color="#E23089" stop-opacity="1"/><stop offset="0.0176991" stop-color="#E23289" stop-opacity="1"/><stop offset="0.0265487" stop-color="#E23489" stop-opacity="1"/><stop offset="0.0353982" stop-color="#E33589" stop-opacity="1"/><stop offset="0.0442478" stop-color="#E33789" stop-opacity="1"/><stop offset="0.0530973" stop-color="#E33989" stop-opacity="1"/><stop offset="0.0619469" stop-color="#E43A89" stop-opacity="1"/><stop offset="0.0707965" stop-color="#E43C89" stop-opacity="1"/><stop offset="0.079646" stop-color="#E43E89" stop-opacity="1"/><stop offset="0.0884956" stop-color="#E43F88" stop-opacity="1"/><stop offset="0.0973451" stop-color="#E54188" stop-opacity="1"/><stop offset="0.106195" stop-color="#E54288" stop-opacity="1"/><stop offset="0.115044" stop-color="#E54488" stop-opacity="1"/><stop offset="0.123894" stop-color="#E54687" stop-opacity="1"/><stop offset="0.132743" stop-color="#E64787" stop-opacity="1"/><stop offset="0.141593" stop-color="#E64987" stop-opacity="1"/><stop offset="0.150442" stop-color="#E64A86" stop-opacity="1"/><stop offset="0.159292" stop-color="#E64C86" stop-opacity="1"/><stop offset="0.168142" stop-color="#E74D85" stop-opacity="1"/><stop offset="0.176991" stop-color="#E74F85" stop-opacity="1"/><stop offset="0.185841" stop-color="#E75085" stop-opacity="1"/><stop offset="0.19469" stop-color="#E85284" stop-opacity="1"/><stop offset="0.20354" stop-color="#E85384" stop-opacity="1"/><stop offset="0.212389" stop-color="#E85483" stop-opacity="1"/><stop offset="0.221239" stop-color="#E85683" stop-opacity="1"/><stop offset="0.230089" stop-color="#E85782" stop-opacity="1"/><stop offset="0.238938" stop-color="#E95982" stop-opacity="1"/><stop offset="0.247788" stop-color="#E95A81" stop-opacity="1"/><stop offset="0.256637" stop-color="#E95B81" stop-opacity="1"/><stop offset="0.265487" stop-color="#E95D80" stop-opacity="1"/><stop offset="0.274336" stop-color="#EA5E7F" stop-opacity="1"/><stop offset="0.283186" stop-color="#EA5F7F" stop-opacity="1"/><stop offset="0.292035" stop-color="#EA617E" stop-opacity="1"/><stop offset="0.300885" stop-color="#EA627E" stop-opacity="1"/><stop offset="0.309735" stop-color="#EB637D" stop-opacity="1"/><stop offset="0.318584" stop-color="#EB647C" stop-opacity="1"/><stop offset="0.327434" stop-color="#EB667B" stop-opacity="1"/><stop offset="0.336283" stop-color="#EB677B" stop-opacity="1"/><stop offset="0.345133" stop-color="#EB687A" stop-opacity="1"/><stop offset="0.353982" stop-color="#EC6979" stop-opacity="1"/><stop offset="0.362832" stop-color="#EC6A78" stop-opacity="1"/><stop offset="0.371681" stop-color="#EC6C78" stop-opacity="1"/><stop offset="0.380531" stop-color="#EC6D77" stop-opacity="1"/><stop offset="0.389381" stop-color="#EC6E76" stop-opacity="1"/><stop offset="0.39823" stop-color="#ED6F75" stop-opacity="1"/><stop offset="0.40708" stop-color="#ED7074" stop-opacity="1"/><stop offset="0.415929" stop-color="#ED7173" stop-opacity="1"/><stop offset="0.424779" stop-color="#ED7273" stop-opacity="1"/><stop offset="0.433628" stop-color="#ED7372" stop-opacity="1"/><stop offset="0.442478" stop-color="#ED7471" stop-opacity="1"/><stop offset="0.451327" stop-color="#EE7570" stop-opacity="1"/><stop offset="0.460177" stop-color="#EE766F" stop-opacity="1"/><stop offset="0.469027" stop-color="#EE776E" stop-opacity="1"/><stop offset="0.477876" stop-color="#EE786D" stop-opacity="1"/><stop offset="0.486726" stop-color="#EE796C" stop-opacity="1"/><stop offset="0.495575" stop-color="#EF7A6B" stop-opacity="1"/><stop offset="0.504425" stop-color="#EF7B6A" stop-opacity="1"/><stop offset="0.513274" stop-color="#EF7C69" stop-opacity="1"/><stop offset="0.522124" stop-color="#EF7D68" stop-opacity="1"/><stop offset="0.530973" stop-color="#EF7E67" stop-opacity="1"/><stop offset="0.539823" stop-color="#EF7F66" stop-opacity="1"/><stop offset="0.548673" stop-color="#EF8065" stop-opacity="1"/><stop offset="0.557522" stop-color="#F08163" stop-opacity="1"/><stop offset="0.566372" stop-color="#F08262" stop-opacity="1"/><stop offset="0.575221" stop-color="#F08261" stop-opacity="1"/><stop offset="0.584071" stop-color="#F08360" stop-opacity="1"/><stop offset="0.59292" stop-color="#F0845F" stop-opacity="1"/><stop offset="0.60177" stop-color="#F0855E" stop-opacity="1"/><stop offset="0.610619" stop-color="#F0865C" stop-opacity="1"/><stop offset="0.619469" stop-color="#F1865B" stop-opacity="1"/><stop offset="0.628319" stop-color="#F1875A" stop-opacity="1"/><stop offset="0.637168" stop-color="#F18859" stop-opacity="1"/><stop offset="0.646018" stop-color="#F18957" stop-opacity="1"/><stop offset="0.654867" stop-color="#F18956" stop-opacity="1"/><stop offset="0.663717" stop-color="#F18A55" stop-opacity="1"/><stop offset="0.672566" stop-color="#F18B53" stop-opacity="1"/><stop offset="0.681416" stop-color="#F18B52" stop-opacity="1"/><stop offset="0.690265" stop-color="#F28C51" stop-opacity="1"/><stop offset="0.699115" stop-color="#F28C4F" stop-opacity="1"/><stop offset="0.707965" stop-color="#F28D4E" stop-opacity="1"/><stop offset="0.716814" stop-color="#F28E4C" stop-opacity="1"/><stop offset="0.725664" stop-color="#F28E4B" stop-opacity="1"/><stop offset="0.734513" stop-color="#F28F4A" stop-opacity="1"/><stop offset="0.743363" stop-color="#F28F48" stop-opacity="1"/><stop offset="0.752212" stop-color="#F29047" stop-opacity="1"/><stop offset="0.761062" stop-color="#F29045" stop-opacity="1"/><stop offset="0.769912" stop-color="#F29144" stop-opacity="1"/><stop offset="0.778761" stop-color="#F29142" stop-opacity="1"/><stop offset="0.787611" stop-color="#F39241" stop-opacity="1"/><stop offset="0.79646" stop-color="#F3923F" stop-opacity="1"/><stop offset="0.80531" stop-color="#F3933E" stop-opacity="1"/><stop offset="0.814159" stop-color="#F3933C" stop-opacity="1"/><stop offset="0.823009" stop-color="#F3933A" stop-opacity="1"/><stop offset="0.831858" stop-color="#F39439" stop-opacity="1"/><stop offset="0.840708" stop-color="#F39437" stop-opacity="1"/><stop offset="0.849558" stop-color="#F39436" stop-opacity="1"/><stop offset="0.858407" stop-color="#F39534" stop-opacity="1"/><stop offset="0.867257" stop-color="#F39532" stop-opacity="1"/><stop offset="0.876106" stop-color="#F39531" stop-opacity="1"/><stop offset="0.884956" stop-color="#F3962F" stop-opacity="1"/><stop offset="0.893805" stop-color="#F3962D" stop-opacity="1"/><stop offset="0.902655" stop-color="#F3962B" stop-opacity="1"/><stop offset="0.911504" stop-color="#F3962A" stop-opacity="1"/><stop offset="0.920354" stop-color="#F39728" stop-opacity="1"/><stop offset="0.929204" stop-color="#F39726" stop-opacity="1"/><stop offset="0.938053" stop-color="#F39724" stop-opacity="1"/><stop offset="0.946903" stop-color="#F39723" stop-opacity="1"/><stop offset="0.955752" stop-color="#F39721" stop-opacity="1"/><stop offset="0.964602" stop-color="#F3971F" stop-opacity="1"/><stop offset="0.973451" stop-color="#F3971D" stop-opacity="1"/><stop offset="0.982301" stop-color="#F3971B" stop-opacity="1"/><stop offset="0.99115" stop-color="#F39719" stop-opacity="1"/><stop offset="1" stop-color="#F49818" stop-opacity="1"/></linearGradient><linearGradient x1="1318.19" y1="1521.22" x2="2422.78" y2="1521.22" gradientUnits="userSpaceOnUse" spreadMethod="reflect" id="fill3"><stop offset="0" stop-color="#E22F8A" stop-opacity="1"/><stop offset="0.2" stop-color="#F49818" stop-opacity="1"/><stop offset="1" stop-color="#F49818" stop-opacity="1"/></linearGradient><linearGradient x1="1318.19" y1="1521.22" x2="2422.78" y2="1521.22" gradientUnits="userSpaceOnUse" spreadMethod="reflect" id="fill4"><stop offset="0" stop-color="#F49818" stop-opacity="1"/><stop offset="0.26" stop-color="#F49818" stop-opacity="1"/><stop offset="0.55" stop-color="#E22F8A" stop-opacity="1"/><stop offset="1" stop-color="#E22F8A" stop-opacity="1"/></linearGradient><linearGradient x1="87.5893" y1="-10.3125" x2="87.5893" y2="159.128" gradientUnits="userSpaceOnUse" spreadMethod="reflect" id="stroke5"><stop offset="0" stop-color="#F49818" stop-opacity="1"/><stop offset="0.00884956" stop-color="#F39719" stop-opacity="1"/><stop offset="0.0176991" stop-color="#F3971B" stop-opacity="1"/><stop offset="0.0265487" stop-color="#F3971D" stop-opacity="1"/><stop offset="0.0353982" stop-color="#F3971F" stop-opacity="1"/><stop offset="0.0442478" stop-color="#F39721" stop-opacity="1"/><stop offset="0.0530973" stop-color="#F39723" stop-opacity="1"/><stop offset="0.0619469" stop-color="#F39724" stop-opacity="1"/><stop offset="0.0707965" stop-color="#F39726" stop-opacity="1"/><stop offset="0.079646" stop-color="#F39728" stop-opacity="1"/><stop offset="0.0884956" stop-color="#F3962A" stop-opacity="1"/><stop offset="0.0973451" stop-color="#F3962B" stop-opacity="1"/><stop offset="0.106195" stop-color="#F3962D" stop-opacity="1"/><stop offset="0.115044" stop-color="#F3962F" stop-opacity="1"/><stop offset="0.123894" stop-color="#F39531" stop-opacity="1"/><stop offset="0.132743" stop-color="#F39532" stop-opacity="1"/><stop offset="0.141593" stop-color="#F39534" stop-opacity="1"/><stop offset="0.150442" stop-color="#F39436" stop-opacity="1"/><stop offset="0.159292" stop-color="#F39437" stop-opacity="1"/><stop offset="0.168142" stop-color="#F39439" stop-opacity="1"/><stop offset="0.176991" stop-color="#F3933A" stop-opacity="1"/><stop offset="0.185841" stop-color="#F3933C" stop-opacity="1"/><stop offset="0.19469" stop-color="#F3933E" stop-opacity="1"/><stop offset="0.20354" stop-color="#F3923F" stop-opacity="1"/><stop offset="0.212389" stop-color="#F39241" stop-opacity="1"/><stop offset="0.221239" stop-color="#F29142" stop-opacity="1"/><stop offset="0.230089" stop-color="#F29144" stop-opacity="1"/><stop offset="0.238938" stop-color="#F29045" stop-opacity="1"/><stop offset="0.247788" stop-color="#F29047" stop-opacity="1"/><stop offset="0.256637" stop-color="#F28F48" stop-opacity="1"/><stop offset="0.265487" stop-color="#F28F4A" stop-opacity="1"/><stop offset="0.274336" stop-color="#F28E4B" stop-opacity="1"/><stop offset="0.283186" stop-color="#F28E4C" stop-opacity="1"/><stop offset="0.292035" stop-color="#F28D4E" stop-opacity="1"/><stop offset="0.300885" stop-color="#F28C4F" stop-opacity="1"/><stop offset="0.309735" stop-color="#F28C51" stop-opacity="1"/><stop offset="0.318584" stop-color="#F18B52" stop-opacity="1"/><stop offset="0.327434" stop-color="#F18B53" stop-opacity="1"/><stop offset="0.336283" stop-color="#F18A55" stop-opacity="1"/><stop offset="0.345133" stop-color="#F18956" stop-opacity="1"/><stop offset="0.353982" stop-color="#F18957" stop-opacity="1"/><stop offset="0.362832" stop-color="#F18859" stop-opacity="1"/><stop offset="0.371681" stop-color="#F1875A" stop-opacity="1"/><stop offset="0.380531" stop-color="#F1865B" stop-opacity="1"/><stop offset="0.389381" stop-color="#F0865C" stop-opacity="1"/><stop offset="0.39823" stop-color="#F0855E" stop-opacity="1"/><stop offset="0.40708" stop-color="#F0845F" stop-opacity="1"/><stop offset="0.415929" stop-color="#F08360" stop-opacity="1"/><stop offset="0.424779" stop-color="#F08261" stop-opacity="1"/><stop offset="0.433628" stop-color="#F08262" stop-opacity="1"/><stop offset="0.442478" stop-color="#F08163" stop-opacity="1"/><stop offset="0.451327" stop-color="#EF8065" stop-opacity="1"/><stop offset="0.460177" stop-color="#EF7F66" stop-opacity="1"/><stop offset="0.469027" stop-color="#EF7E67" stop-opacity="1"/><stop offset="0.477876" stop-color="#EF7D68" stop-opacity="1"/><stop offset="0.486726" stop-color="#EF7C69" stop-opacity="1"/><stop offset="0.495575" stop-color="#EF7B6A" stop-opacity="1"/><stop offset="0.504425" stop-color="#EF7A6B" stop-opacity="1"/><stop offset="0.513274" stop-color="#EE796C" stop-opacity="1"/><stop offset="0.522124" stop-color="#EE786D" stop-opacity="1"/><stop offset="0.530973" stop-color="#EE776E" stop-opacity="1"/><stop offset="0.539823" stop-color="#EE766F" stop-opacity="1"/><stop offset="0.548673" stop-color="#EE7570" stop-opacity="1"/><stop offset="0.557522" stop-color="#ED7471" stop-opacity="1"/><stop offset="0.566372" stop-color="#ED7372" stop-opacity="1"/><stop offset="0.575221" stop-color="#ED7273" stop-opacity="1"/><stop offset="0.584071" stop-color="#ED7173" stop-opacity="1"/><stop offset="0.59292" stop-color="#ED7074" stop-opacity="1"/><stop offset="0.60177" stop-color="#ED6F75" stop-opacity="1"/><stop offset="0.610619" stop-color="#EC6E76" stop-opacity="1"/><stop offset="0.619469" stop-color="#EC6D77" stop-opacity="1"/><stop offset="0.628319" stop-color="#EC6C78" stop-opacity="1"/><stop offset="0.637168" stop-color="#EC6A78" stop-opacity="1"/><stop offset="0.646018" stop-color="#EC6979" stop-opacity="1"/><stop offset="0.654867" stop-color="#EB687A" stop-opacity="1"/><stop offset="0.663717" stop-color="#EB677B" stop-opacity="1"/><stop offset="0.672566" stop-color="#EB667B" stop-opacity="1"/><stop offset="0.681416" stop-color="#EB647C" stop-opacity="1"/><stop offset="0.690265" stop-color="#EB637D" stop-opacity="1"/><stop offset="0.699115" stop-color="#EA627E" stop-opacity="1"/><stop offset="0.707965" stop-color="#EA617E" stop-opacity="1"/><stop offset="0.716814" stop-color="#EA5F7F" stop-opacity="1"/><stop offset="0.725664" stop-color="#EA5E7F" stop-opacity="1"/><stop offset="0.734513" stop-color="#E95D80" stop-opacity="1"/><stop offset="0.743363" stop-color="#E95B81" stop-opacity="1"/><stop offset="0.752212" stop-color="#E95A81" stop-opacity="1"/><stop offset="0.761062" stop-color="#E95982" stop-opacity="1"/><stop offset="0.769912" stop-color="#E85782" stop-opacity="1"/><stop offset="0.778761" stop-color="#E85683" stop-opacity="1"/><stop offset="0.787611" stop-color="#E85483" stop-opacity="1"/><stop offset="0.79646" stop-color="#E85384" stop-opacity="1"/><stop offset="0.80531" stop-color="#E85284" stop-opacity="1"/><stop offset="0.814159" stop-color="#E75085" stop-opacity="1"/><stop offset="0.823009" stop-color="#E74F85" stop-opacity="1"/><stop offset="0.831858" stop-color="#E74D85" stop-opacity="1"/><stop offset="0.840708" stop-color="#E64C86" stop-opacity="1"/><stop offset="0.849558" stop-color="#E64A86" stop-opacity="1"/><stop offset="0.858407" stop-color="#E64987" stop-opacity="1"/><stop offset="0.867257" stop-color="#E64787" stop-opacity="1"/><stop offset="0.876106" stop-color="#E54687" stop-opacity="1"/><stop offset="0.884956" stop-color="#E54488" stop-opacity="1"/><stop offset="0.893805" stop-color="#E54288" stop-opacity="1"/><stop offset="0.902655" stop-color="#E54188" stop-opacity="1"/><stop offset="0.911504" stop-color="#E43F88" stop-opacity="1"/><stop offset="0.920354" stop-color="#E43E89" stop-opacity="1"/><stop offset="0.929204" stop-color="#E43C89" stop-opacity="1"/><stop offset="0.938053" stop-color="#E43A89" stop-opacity="1"/><stop offset="0.946903" stop-color="#E33989" stop-opacity="1"/><stop offset="0.955752" stop-color="#E33789" stop-opacity="1"/><stop offset="0.964602" stop-color="#E33589" stop-opacity="1"/><stop offset="0.973451" stop-color="#E23489" stop-opacity="1"/><stop offset="0.982301" stop-color="#E23289" stop-opacity="1"/><stop offset="0.99115" stop-color="#E23089" stop-opacity="1"/><stop offset="1" stop-color="#E22F8A" stop-opacity="1"/></linearGradient><linearGradient x1="1177.2" y1="1418.19" x2="1177.2" y2="1588.22" gradientUnits="userSpaceOnUse" spreadMethod="reflect" id="stroke6"><stop offset="0" stop-color="#F49818" stop-opacity="1"/><stop offset="0.00884956" stop-color="#F39719" stop-opacity="1"/><stop offset="0.0176991" stop-color="#F3971B" stop-opacity="1"/><stop offset="0.0265487" stop-color="#F3971D" stop-opacity="1"/><stop offset="0.0353982" stop-color="#F3971F" stop-opacity="1"/><stop offset="0.0442478" stop-color="#F39721" stop-opacity="1"/><stop offset="0.0530973" stop-color="#F39723" stop-opacity="1"/><stop offset="0.0619469" stop-color="#F39724" stop-opacity="1"/><stop offset="0.0707965" stop-color="#F39726" stop-opacity="1"/><stop offset="0.079646" stop-color="#F39728" stop-opacity="1"/><stop offset="0.0884956" stop-color="#F3962A" stop-opacity="1"/><stop offset="0.0973451" stop-color="#F3962B" stop-opacity="1"/><stop offset="0.106195" stop-color="#F3962D" stop-opacity="1"/><stop offset="0.115044" stop-color="#F3962F" stop-opacity="1"/><stop offset="0.123894" stop-color="#F39531" stop-opacity="1"/><stop offset="0.132743" stop-color="#F39532" stop-opacity="1"/><stop offset="0.141593" stop-color="#F39534" stop-opacity="1"/><stop offset="0.150442" stop-color="#F39436" stop-opacity="1"/><stop offset="0.159292" stop-color="#F39437" stop-opacity="1"/><stop offset="0.168142" stop-color="#F39439" stop-opacity="1"/><stop offset="0.176991" stop-color="#F3933A" stop-opacity="1"/><stop offset="0.185841" stop-color="#F3933C" stop-opacity="1"/><stop offset="0.19469" stop-color="#F3933E" stop-opacity="1"/><stop offset="0.20354" stop-color="#F3923F" stop-opacity="1"/><stop offset="0.212389" stop-color="#F39241" stop-opacity="1"/><stop offset="0.221239" stop-color="#F29142" stop-opacity="1"/><stop offset="0.230089" stop-color="#F29144" stop-opacity="1"/><stop offset="0.238938" stop-color="#F29045" stop-opacity="1"/><stop offset="0.247788" stop-color="#F29047" stop-opacity="1"/><stop offset="0.256637" stop-color="#F28F48" stop-opacity="1"/><stop offset="0.265487" stop-color="#F28F4A" stop-opacity="1"/><stop offset="0.274336" stop-color="#F28E4B" stop-opacity="1"/><stop offset="0.283186" stop-color="#F28E4C" stop-opacity="1"/><stop offset="0.292035" stop-color="#F28D4E" stop-opacity="1"/><stop offset="0.300885" stop-color="#F28C4F" stop-opacity="1"/><stop offset="0.309735" stop-color="#F28C51" stop-opacity="1"/><stop offset="0.318584" stop-color="#F18B52" stop-opacity="1"/><stop offset="0.327434" stop-color="#F18B53" stop-opacity="1"/><stop offset="0.336283" stop-color="#F18A55" stop-opacity="1"/><stop offset="0.345133" stop-color="#F18956" stop-opacity="1"/><stop offset="0.353982" stop-color="#F18957" stop-opacity="1"/><stop offset="0.362832" stop-color="#F18859" stop-opacity="1"/><stop offset="0.371681" stop-color="#F1875A" stop-opacity="1"/><stop offset="0.380531" stop-color="#F1865B" stop-opacity="1"/><stop offset="0.389381" stop-color="#F0865C" stop-opacity="1"/><stop offset="0.39823" stop-color="#F0855E" stop-opacity="1"/><stop offset="0.40708" stop-color="#F0845F" stop-opacity="1"/><stop offset="0.415929" stop-color="#F08360" stop-opacity="1"/><stop offset="0.424779" stop-color="#F08261" stop-opacity="1"/><stop offset="0.433628" stop-color="#F08262" stop-opacity="1"/><stop offset="0.442478" stop-color="#F08163" stop-opacity="1"/><stop offset="0.451327" stop-color="#EF8065" stop-opacity="1"/><stop offset="0.460177" stop-color="#EF7F66" stop-opacity="1"/><stop offset="0.469027" stop-color="#EF7E67" stop-opacity="1"/><stop offset="0.477876" stop-color="#EF7D68" stop-opacity="1"/><stop offset="0.486726" stop-color="#EF7C69" stop-opacity="1"/><stop offset="0.495575" stop-color="#EF7B6A" stop-opacity="1"/><stop offset="0.504425" stop-color="#EF7A6B" stop-opacity="1"/><stop offset="0.513274" stop-color="#EE796C" stop-opacity="1"/><stop offset="0.522124" stop-color="#EE786D" stop-opacity="1"/><stop offset="0.530973" stop-color="#EE776E" stop-opacity="1"/><stop offset="0.539823" stop-color="#EE766F" stop-opacity="1"/><stop offset="0.548673" stop-color="#EE7570" stop-opacity="1"/><stop offset="0.557522" stop-color="#ED7471" stop-opacity="1"/><stop offset="0.566372" stop-color="#ED7372" stop-opacity="1"/><stop offset="0.575221" stop-color="#ED7273" stop-opacity="1"/><stop offset="0.584071" stop-color="#ED7173" stop-opacity="1"/><stop offset="0.59292" stop-color="#ED7074" stop-opacity="1"/><stop offset="0.60177" stop-color="#ED6F75" stop-opacity="1"/><stop offset="0.610619" stop-color="#EC6E76" stop-opacity="1"/><stop offset="0.619469" stop-color="#EC6D77" stop-opacity="1"/><stop offset="0.628319" stop-color="#EC6C78" stop-opacity="1"/><stop offset="0.637168" stop-color="#EC6A78" stop-opacity="1"/><stop offset="0.646018" stop-color="#EC6979" stop-opacity="1"/><stop offset="0.654867" stop-color="#EB687A" stop-opacity="1"/><stop offset="0.663717" stop-color="#EB677B" stop-opacity="1"/><stop offset="0.672566" stop-color="#EB667B" stop-opacity="1"/><stop offset="0.681416" stop-color="#EB647C" stop-opacity="1"/><stop offset="0.690265" stop-color="#EB637D" stop-opacity="1"/><stop offset="0.699115" stop-color="#EA627E" stop-opacity="1"/><stop offset="0.707965" stop-color="#EA617E" stop-opacity="1"/><stop offset="0.716814" stop-color="#EA5F7F" stop-opacity="1"/><stop offset="0.725664" stop-color="#EA5E7F" stop-opacity="1"/><stop offset="0.734513" stop-color="#E95D80" stop-opacity="1"/><stop offset="0.743363" stop-color="#E95B81" stop-opacity="1"/><stop offset="0.752212" stop-color="#E95A81" stop-opacity="1"/><stop offset="0.761062" stop-color="#E95982" stop-opacity="1"/><stop offset="0.769912" stop-color="#E85782" stop-opacity="1"/><stop offset="0.778761" stop-color="#E85683" stop-opacity="1"/><stop offset="0.787611" stop-color="#E85483" stop-opacity="1"/><stop offset="0.79646" stop-color="#E85384" stop-opacity="1"/><stop offset="0.80531" stop-color="#E85284" stop-opacity="1"/><stop offset="0.814159" stop-color="#E75085" stop-opacity="1"/><stop offset="0.823009" stop-color="#E74F85" stop-opacity="1"/><stop offset="0.831858" stop-color="#E74D85" stop-opacity="1"/><stop offset="0.840708" stop-color="#E64C86" stop-opacity="1"/><stop offset="0.849558" stop-color="#E64A86" stop-opacity="1"/><stop offset="0.858407" stop-color="#E64987" stop-opacity="1"/><stop offset="0.867257" stop-color="#E64787" stop-opacity="1"/><stop offset="0.876106" stop-color="#E54687" stop-opacity="1"/><stop offset="0.884956" stop-color="#E54488" stop-opacity="1"/><stop offset="0.893805" stop-color="#E54288" stop-opacity="1"/><stop offset="0.902655" stop-color="#E54188" stop-opacity="1"/><stop offset="0.911504" stop-color="#E43F88" stop-opacity="1"/><stop offset="0.920354" stop-color="#E43E89" stop-opacity="1"/><stop offset="0.929204" stop-color="#E43C89" stop-opacity="1"/><stop offset="0.938053" stop-color="#E43A89" stop-opacity="1"/><stop offset="0.946903" stop-color="#E33989" stop-opacity="1"/><stop offset="0.955752" stop-color="#E33789" stop-opacity="1"/><stop offset="0.964602" stop-color="#E33589" stop-opacity="1"/><stop offset="0.973451" stop-color="#E23489" stop-opacity="1"/><stop offset="0.982301" stop-color="#E23289" stop-opacity="1"/><stop offset="0.99115" stop-color="#E23089" stop-opacity="1"/><stop offset="1" stop-color="#E22F8A" stop-opacity="1"/></linearGradient></defs><g clip-path="url(#clip0)" transform="translate(-889 -1393)"><path d="M1089.89 1583.91C1046.05 1583.91 1002.2 1546.56 1002.2 1509.2 1002.2 1471.85 958.348 1434.5 914.5 1434.5" stroke="url(#stroke1)" stroke-width="20.625" stroke-linecap="butt" stroke-linejoin="miter" stroke-miterlimit="8" fill="none" fill-rule="evenodd"/><path d="M0 0C43.7947 0 87.5893 37.2038 87.5893 74.4076 87.5893 111.611 131.384 148.815 175.179 148.815" stroke="url(#stroke2)" stroke-width="20.625" stroke-linecap="butt" stroke-linejoin="miter" stroke-miterlimit="8" fill="none" fill-rule="evenodd" transform="matrix(1 0 0 -1 1089.5 1584.32)"/><path d="M1529.54 1482.23 1545.62 1482.23 1545.62 1567.21 1529.54 1567.21ZM1634 1459.18 1650.44 1459.18 1650.44 1482.23 1676.26 1482.23 1676.26 1496.53 1650.44 1496.53 1650.44 1539.84C1650.44 1549.27 1653.12 1553.99 1658.48 1553.99 1663.21 1553.99 1668.93 1551.99 1675.66 1547.99L1679.39 1561.47C1669.84 1566.67 1660.19 1569.27 1650.44 1569.27 1639.24 1569.27 1633.64 1560.84 1633.64 1543.98L1633.64 1496.53 1618.27 1496.53 1618.27 1482.23 1634 1482.23ZM1528.28 1439.34 1548.39 1439.34 1548.39 1459.27 1528.28 1459.27ZM1371.14 1432.64C1382.97 1432.64 1394.81 1435.8 1406.67 1442.13L1403.6 1460C1396.97 1455.92 1391.52 1452.95 1387.26 1451.08 1383 1449.21 1377.56 1448.28 1370.96 1448.28 1363.51 1448.28 1357.53 1450.28 1353.02 1454.29 1348.51 1458.3 1346.25 1462.96 1346.25 1468.27 1346.25 1472.21 1347.54 1475.8 1350.12 1479.05 1352.7 1482.29 1355.95 1484.71 1359.86 1486.29 1361.54 1486.72 1365.96 1487.84 1373.11 1489.65 1380.27 1491.47 1384.81 1492.86 1386.73 1493.81 1394.31 1496.83 1400.61 1501.56 1405.63 1508.01 1410.66 1514.45 1413.18 1522.05 1413.18 1530.8 1413.18 1541.65 1409.1 1551.1 1400.95 1559.15 1392.8 1567.21 1382.38 1571.23 1369.7 1571.23 1354.74 1571.23 1340.25 1566.74 1326.22 1557.75L1329.56 1539.84C1343.55 1549.99 1356.93 1555.06 1369.7 1555.06 1377.16 1555.06 1383.19 1552.79 1387.79 1548.26 1392.38 1543.73 1394.68 1538.52 1394.68 1532.64 1394.68 1528.3 1393.37 1524.29 1390.74 1520.6 1388.11 1516.92 1384.56 1514.18 1380.1 1512.38 1379.93 1512.29 1372.48 1510.3 1357.75 1506.39 1349.98 1504.33 1343.12 1500.14 1337.19 1493.8 1331.26 1487.47 1328.29 1479.63 1328.29 1470.3 1328.29 1460.41 1332.26 1451.66 1340.19 1444.05 1348.13 1436.45 1358.44 1432.64 1371.14 1432.64ZM1434.83 1431.48 1452.16 1431.48 1452.16 1493.58C1457.66 1484.83 1465.82 1480.42 1476.64 1480.36 1481.53 1480.36 1485.76 1481.15 1489.35 1482.73 1492.93 1484.31 1495.63 1486.22 1497.44 1488.46 1499.25 1490.69 1500.63 1493.43 1501.6 1496.67 1502.56 1499.9 1503.14 1502.69 1503.34 1505.03 1503.53 1507.37 1503.63 1509.93 1503.63 1512.7L1503.63 1567.21 1485.67 1567.21 1485.67 1514.17C1485.67 1512.17 1485.64 1510.6 1485.59 1509.46 1485.53 1508.32 1485.2 1506.71 1484.6 1504.63 1483.99 1502.55 1483.2 1500.94 1482.21 1499.8 1481.22 1498.67 1479.65 1497.63 1477.5 1496.69 1475.35 1495.75 1472.68 1495.28 1469.5 1495.28 1463.77 1495.28 1459.55 1497.79 1456.84 1502.8 1454.14 1507.82 1452.79 1514.07 1452.79 1521.57L1452.79 1567.21 1434.83 1567.21ZM1609.66 1429.34C1614.29 1429.34 1619.74 1430.15 1626.01 1431.78L1626.01 1447.39C1619.26 1445.3 1613.69 1444.26 1609.3 1444.26 1605.51 1444.26 1602.04 1445.33 1598.87 1447.48 1595.7 1449.63 1594.11 1453.5 1594.11 1459.09L1594.11 1482.23 1614.84 1482.23 1614.84 1496.53 1594.65 1496.53 1594.65 1567.21 1577.31 1567.21 1577.31 1496.53 1563.73 1496.53 1563.73 1482.23 1577.31 1482.23 1577.31 1470.62C1577.31 1470.22 1577.28 1469.52 1577.22 1468.54 1577.16 1467.56 1577.14 1466.79 1577.14 1466.24 1577.14 1454.49 1580.4 1445.41 1586.92 1438.98 1593.44 1432.55 1601.02 1429.34 1609.66 1429.34Z" fill="url(#fill3)" fill-rule="evenodd"/><text fill="#000000" fill-opacity="0" font-family="Arial,Arial_MSFontService,sans-serif" font-size="141.896" direction="ltr" writing-mode="lr-tb" x="1326.22" y="1553.5">Shift</text><path d="M2051.79 1531.38C2049.36 1531.38 2046.23 1531.62 2042.4 1532.09 2038.57 1532.57 2034.65 1533.29 2030.63 1534.27 2026.61 1535.24 2023.49 1536.62 2021.26 1538.41 2019.04 1540.2 2017.93 1542.18 2017.93 1544.37 2017.93 1547.12 2019.32 1549.48 2022.11 1551.42 2024.9 1553.37 2028.56 1554.34 2033.07 1554.34 2038.03 1554.34 2042.39 1553.34 2046.15 1551.33 2049.91 1549.32 2051.79 1545.99 2051.79 1541.36ZM2241.67 1482.23 2257.76 1482.23 2257.76 1567.21 2241.67 1567.21ZM1816.36 1482.23 1833.76 1482.23C1841.93 1501.02 1847.98 1515.5 1851.93 1525.68 1855.88 1535.85 1858.18 1542.25 1858.84 1544.89L1859.1 1546.66 1859.3 1545.79C1862.3 1533.9 1869.95 1512.71 1882.25 1482.23L1899.01 1482.23 1859.34 1581.87C1855.61 1590.73 1852.09 1596.76 1848.76 1599.95 1845.44 1603.14 1841.31 1604.74 1836.37 1604.74 1831.2 1604.74 1826.19 1604.11 1821.37 1602.86L1820.38 1587.85C1828.2 1589.94 1833.23 1590.98 1835.48 1590.98 1838.13 1590.98 1840.18 1589.95 1841.62 1587.89 1843.06 1585.84 1845.61 1580.34 1849.27 1571.4 1849.85 1569.94 1850.4 1568.66 1850.9 1567.55 1851.28 1566.7 1851.47 1565.97 1851.47 1565.38 1851.47 1564.79 1851.22 1563.95 1850.7 1562.87ZM2137.79 1480.36C2150.53 1480.36 2158.47 1485.36 2161.61 1495.36 2168.06 1485.36 2177.09 1480.36 2188.72 1480.36 2193.6 1480.36 2197.83 1481.18 2201.4 1482.82 2204.98 1484.46 2207.67 1486.4 2209.46 1488.63 2211.26 1490.87 2212.64 1493.64 2213.6 1496.96 2214.56 1500.27 2215.11 1503.07 2215.24 1505.33 2215.37 1507.6 2215.44 1510.06 2215.44 1512.7L2215.44 1567.21 2197.48 1567.21 2197.48 1514.17C2197.48 1513.93 2197.48 1513.61 2197.48 1513.21 2197.48 1512.81 2197.36 1511.88 2197.12 1510.42 2196.88 1508.96 2196.58 1507.67 2196.22 1506.57 2195.86 1505.47 2195.28 1504.18 2194.47 1502.71 2193.67 1501.25 2192.73 1500 2191.65 1498.98 2190.57 1497.96 2189.16 1497.08 2187.42 1496.36 2185.68 1495.64 2183.73 1495.28 2181.57 1495.28 2175.84 1495.28 2171.61 1497.79 2168.87 1502.8 2166.14 1507.82 2164.78 1514.08 2164.78 1521.57L2164.78 1567.21 2146.81 1567.21 2146.81 1514.17C2146.81 1512.17 2146.79 1510.6 2146.73 1509.46 2146.68 1508.32 2146.35 1506.71 2145.74 1504.63 2145.14 1502.55 2144.34 1500.94 2143.35 1499.8 2142.37 1498.67 2140.8 1497.63 2138.65 1496.69 2136.49 1495.75 2133.83 1495.28 2130.64 1495.28 2124.91 1495.28 2120.69 1497.79 2117.99 1502.8 2115.28 1507.82 2113.93 1514.07 2113.93 1521.57L2113.93 1567.21 2095.97 1567.21 2095.97 1481.25 2112.95 1481.25 2112.95 1494.29C2118.21 1485 2126.49 1480.36 2137.79 1480.36ZM1955.03 1480.36C1959.8 1480.36 1963.94 1481.08 1967.43 1482.52 1970.93 1483.97 1973.63 1485.78 1975.51 1487.97 1977.4 1490.16 1978.83 1492.81 1979.8 1495.93 1980.76 1499.06 1981.38 1501.86 1981.63 1504.35 1981.89 1506.85 1982.01 1509.63 1982.01 1512.7L1982.01 1567.21 1964.05 1567.21 1964.05 1514.17C1964.05 1512.17 1964.03 1510.6 1963.97 1509.46 1963.92 1508.32 1963.59 1506.71 1962.98 1504.63 1962.38 1502.55 1961.58 1500.94 1960.59 1499.8 1959.61 1498.67 1958.04 1497.63 1955.89 1496.69 1953.73 1495.75 1951.07 1495.28 1947.88 1495.28 1942.15 1495.28 1937.93 1497.79 1935.23 1502.8 1932.52 1507.82 1931.17 1514.07 1931.17 1521.57L1931.17 1567.21 1913.21 1567.21 1913.21 1481.25 1930.19 1481.25 1930.19 1494.29C1935.45 1485 1943.73 1480.36 1955.03 1480.36ZM2389.97 1479.29C2398.94 1479.29 2408.44 1481.4 2418.47 1485.62L2415.95 1500.66C2414.29 1500.37 2412.88 1499.96 2411.7 1499.43 2410.51 1498.9 2409.84 1498.58 2409.67 1498.46 2409.5 1498.35 2408.83 1498.05 2407.65 1497.56 2406.48 1497.07 2405.7 1496.76 2405.3 1496.63 2404.91 1496.49 2404.21 1496.23 2403.21 1495.84 2402.21 1495.46 2401.43 1495.23 2400.87 1495.18 2400.31 1495.13 2399.44 1494.95 2398.27 1494.65 2397.11 1494.35 2396.09 1494.17 2395.21 1494.11 2394.34 1494.05 2393.3 1494 2392.1 1493.94 2390.9 1493.88 2389.66 1493.85 2388.36 1493.85 2383.26 1493.85 2379.73 1494.81 2377.77 1496.72 2375.81 1498.63 2374.82 1500.81 2374.82 1503.26 2374.82 1506.64 2376.24 1509.1 2379.08 1510.64 2381.92 1512.17 2386.25 1513.45 2392.06 1514.46 2397.88 1515.47 2401.82 1516.52 2403.87 1517.61 2409.07 1519.82 2413.32 1523.03 2416.61 1527.23 2419.91 1531.42 2421.56 1536.46 2421.56 1542.33 2421.56 1545.3 2421.11 1548.2 2420.23 1551.05 2419.35 1553.89 2417.81 1556.75 2415.63 1559.64 2413.44 1562.52 2410.12 1564.85 2405.67 1566.62 2401.22 1568.38 2395.97 1569.27 2389.94 1569.27 2378.94 1569.21 2368.03 1566.21 2357.21 1560.28L2359.9 1545.12C2361.6 1545.38 2363.14 1545.93 2364.51 1546.77 2365.89 1547.61 2366.82 1548.16 2367.3 1548.41 2367.78 1548.66 2368.84 1549.2 2370.5 1550.01 2372.15 1550.82 2373.53 1551.41 2374.63 1551.77 2375.73 1552.13 2377.14 1552.56 2378.86 1553.04 2380.58 1553.53 2382.31 1553.86 2384.06 1554.06 2385.81 1554.25 2387.72 1554.34 2389.79 1554.34 2395.41 1554.34 2399.37 1553.22 2401.67 1550.97 2403.97 1548.72 2405.12 1546.26 2405.12 1543.59 2405.12 1541.09 2404.15 1538.96 2402.22 1537.18 2400.29 1535.41 2398.25 1534.21 2396.08 1533.58 2394.84 1533.21 2392.09 1532.59 2387.85 1531.72 2383.6 1530.85 2380.73 1530.15 2379.22 1529.6 2373.47 1527.83 2368.56 1524.89 2364.49 1520.78 2360.42 1516.67 2358.38 1511.49 2358.38 1505.23 2358.38 1502.23 2358.83 1499.39 2359.71 1496.72 2360.6 1494.04 2362.14 1491.28 2364.33 1488.42 2366.53 1485.56 2369.85 1483.32 2374.29 1481.71 2378.73 1480.09 2383.95 1479.29 2389.97 1479.29ZM2319.47 1479.29C2325.33 1479.29 2330.24 1479.86 2334.2 1481.01 2338.15 1482.17 2343.34 1484.57 2349.76 1488.21L2346.98 1502.98C2339.6 1499.12 2334.21 1496.71 2330.79 1495.75 2327.89 1494.96 2324.06 1494.57 2319.29 1494.57 2311.69 1494.57 2305.79 1497.51 2301.61 1503.4 2297.44 1509.28 2295.35 1516.36 2295.35 1524.63 2295.35 1533.32 2297.57 1540.38 2302 1545.82 2306.44 1551.27 2312.14 1553.99 2319.12 1553.99 2328.3 1553.99 2338.44 1550.71 2349.51 1544.14L2350.66 1559.09C2340.13 1565.81 2329.56 1569.21 2318.94 1569.27 2307.18 1569.27 2297.32 1564.91 2289.35 1556.2 2281.37 1547.49 2277.39 1536.97 2277.39 1524.63 2277.39 1512.87 2281.21 1502.38 2288.85 1493.14 2296.49 1483.9 2306.7 1479.29 2319.47 1479.29ZM2037.46 1479.29C2046.37 1479.29 2053.84 1482.23 2059.89 1488.11 2065.95 1494 2069.23 1501.28 2069.76 1509.97L2069.76 1567.21 2052.24 1567.21 2052.24 1562.33 2051.63 1562.87C2049.69 1564.06 2046.08 1565.43 2040.78 1566.96 2035.49 1568.5 2029.75 1569.27 2023.58 1569.27 2016.05 1569.27 2010.43 1566.6 2006.71 1561.25 2002.99 1555.91 2001.13 1550.42 2001.13 1544.78 2001.13 1539.77 2002.98 1535.43 2006.68 1531.78 2010.38 1528.13 2015.08 1525.46 2020.77 1523.77 2026.47 1522.09 2032.01 1520.83 2037.39 1520.01 2042.78 1519.19 2047.58 1518.78 2051.79 1518.78L2051.79 1514.46C2051.57 1507.09 2049.99 1500.84 2047.05 1495.73 2044.61 1494.48 2041.35 1493.85 2037.28 1493.85 2028.31 1493.85 2018.68 1496.95 2008.4 1503.14L2007.08 1488.14C2017.09 1482.24 2027.22 1479.29 2037.46 1479.29ZM1718.41 1450.42 1718.41 1553.45 1742.72 1553.45C1757.39 1553.45 1768.8 1548.09 1776.95 1537.36 1783.91 1528.26 1787.4 1516.84 1787.4 1503.1 1787.4 1488.03 1783.48 1475.49 1775.64 1465.46 1767.81 1455.44 1756.83 1450.42 1742.72 1450.42ZM2240.42 1439.34 2260.53 1439.34 2260.53 1459.27 2240.42 1459.27ZM1698.85 1436.66 1745.58 1436.66C1758.14 1436.66 1769.28 1440.52 1779 1448.22 1787.65 1452.47 1794.48 1459.78 1799.47 1470.15 1804.47 1480.51 1806.97 1491.44 1806.97 1502.92 1806.97 1520.33 1801.81 1534.92 1791.5 1546.69 1781.19 1558.47 1769.02 1565.19 1754.99 1566.85 1753.02 1567.09 1750.01 1567.21 1745.94 1567.21L1698.85 1567.21Z" fill="url(#fill4)" fill-rule="evenodd"/><text fill="#000000" fill-opacity="0" font-family="Arial,Arial_MSFontService,sans-serif" font-size="168.078" direction="ltr" writing-mode="lr-tb" x="1698.85" y="1583.73">Dynamics</text><path d="M0 16.5C-4.45598e-15 7.3873 7.83503 0 17.5 0 27.165-4.20134e-15 35.0001 7.3873 35.0001 16.5 35.0001 25.6127 27.165 33 17.5 33 7.83503 33-1.33679e-14 25.6127 0 16.5Z" stroke="#E22F8A" stroke-width="4.58333" stroke-linecap="butt" stroke-linejoin="miter" stroke-miterlimit="8" stroke-opacity="1" fill="#F49818" fill-rule="evenodd" fill-opacity="1" transform="matrix(-1 0 0 1 1108.5 1569.5)"/><path d="M0 0C43.7947 0 87.5893 37.2038 87.5893 74.4076 87.5893 111.611 131.384 148.815 175.179 148.815" stroke="url(#stroke5)" stroke-width="20.625" stroke-linecap="butt" stroke-linejoin="miter" stroke-miterlimit="8" fill="none" fill-rule="evenodd" transform="matrix(-1 1.22465e-16 1.22465e-16 1 1089.68 1428.5)"/><path d="M1089.5 1428.5C1133.35 1428.5 1177.2 1465.85 1177.2 1503.2 1177.2 1540.56 1221.05 1577.91 1264.89 1577.91" stroke="url(#stroke6)" stroke-width="20.625" stroke-linecap="butt" stroke-linejoin="miter" stroke-miterlimit="8" fill="none" fill-rule="evenodd"/><path d="M0 16C-4.45598e-15 7.16344 7.83503 0 17.5 0 27.165-4.07402e-15 35.0001 7.16344 35.0001 16 35.0001 24.8365 27.165 32 17.5 32 7.83503 32-1.33679e-14 24.8365 0 16Z" stroke="#F49818" stroke-width="4.58333" stroke-linecap="butt" stroke-linejoin="miter" stroke-miterlimit="8" stroke-opacity="1" fill="#E22F8A" fill-rule="evenodd" fill-opacity="1" transform="matrix(1 -1.22465e-16 -1.22465e-16 -1 1072.5 1442.5)"/><path d="M0 16.5C-4.32866e-15 7.3873 7.61117 0 17 0 26.3889-4.20134e-15 34 7.3873 34 16.5 34 25.6127 26.3889 33 17 33 7.61117 33-1.2986e-14 25.6127 0 16.5Z" stroke="#E22F8A" stroke-width="4.58333" stroke-linecap="butt" stroke-linejoin="miter" stroke-miterlimit="8" stroke-opacity="1" fill="#F49818" fill-rule="evenodd" fill-opacity="1" transform="matrix(1 -1.22465e-16 -1.22465e-16 -1 897.5 1594.5)"/><path d="M0 16.5C-4.45598e-15 7.3873 7.83503 0 17.5 0 27.165-4.20134e-15 35.0001 7.3873 35.0001 16.5 35.0001 25.6127 27.165 33 17.5 33 7.83503 33-1.33679e-14 25.6127 0 16.5Z" stroke="#E22F8A" stroke-width="4.58333" stroke-linecap="butt" stroke-linejoin="miter" stroke-miterlimit="8" stroke-opacity="1" fill="#F49818" fill-rule="evenodd" fill-opacity="1" transform="matrix(1 -1.22465e-16 -1.22465e-16 -1 1250.5 1594.5)"/><path d="M0 16C-4.45598e-15 7.16344 7.83503 0 17.5 0 27.165-4.07402e-15 35.0001 7.16344 35.0001 16 35.0001 24.8365 27.165 32 17.5 32 7.83503 32-1.33679e-14 24.8365 0 16Z" stroke="#F49818" stroke-width="4.58333" stroke-linecap="butt" stroke-linejoin="miter" stroke-miterlimit="8" stroke-opacity="1" fill="#E22F8A" fill-rule="evenodd" fill-opacity="1" transform="matrix(-1 0 0 1 1282.5 1418.5)"/><path d="M0 16.0002C-4.45598e-15 7.16352 7.83503 0 17.5 0 27.165-4.07407e-15 35.0001 7.16352 35.0001 16.0002 35.0001 24.8368 27.165 32.0003 17.5 32.0003 7.83503 32.0003-1.33679e-14 24.8368 0 16.0002Z" stroke="#F49818" stroke-width="4.58333" stroke-linecap="butt" stroke-linejoin="miter" stroke-miterlimit="8" stroke-opacity="1" fill="#E22F8A" fill-rule="evenodd" fill-opacity="1" transform="matrix(-1 0 0 1 928.5 1419.5)"/></g></svg>